#!OML:ASF \\sashay\E\basketball\basketball\Project 1\Capture day 1\Session 1\Subject.ASF
:FULLY-SPECIFIED
:DEGREES
220
root -1.04402 13.9 -1.48021 -176.241 -1.76575 -176.333
lowerback 39.4071 2.84667 -2.11185
upperback 13.3112 -2.29152 1.70563
thorax -4.27015 -3.28334 3.87735
lowerneck -2.23525 -3.28598 -13.8698
upperneck -22.8962 1.84635 22.8434
head -6.47701 1.80718 10.0873
rclavicle -8.74653e-015 -2.46493e-014
rhumerus -13.9847 -27.8534 -37.171
rradius 57.9702
rwrist -19.6084
rhand -40.5434 65.969
rfingers 7.12502
rthumb -13.4916 36.426
lclavicle -8.74653e-015 -2.46493e-014
lhumerus -11.0564 27.3397 23.2911
lradius 99.6401
lwrist 33.8293
lhand -39.3937 20.1933
lfingers 7.12502
lthumb -12.3833 49.8065
rfemur -56.1283 -30.6672 19.5658
rtibia 88.8863
rfoot -9.77524 -2.20193
rtoes -49.0867
lfemur -64.4642 40.2123 -31.9745
ltibia 92.7063
lfoot 8.0222 -16.7416
ltoes 4.0936
221
root -1.42216 13.9053 -1.4879 -175.796 -1.31749 -177.421
lowerback 39.0231 2.81771 -2.50369
upperback 13.3146 -2.46739 0.976186
thorax -4.15206 -3.32856 3.35822
lowerneck -2.55345 -3.42329 -14.0433
upperneck -22.9193 1.78758 23.1296
head -6.40483 1.82427 10.2297
rclavicle -4.77083e-015 -1.59028e-015
rhumerus -14.5866 -27.2523 -36.4166
rradius 57.6647
rwrist -19.5307
rhand -40.9558 64.757
rfingers 7.12502
rthumb -13.889 35.2408
lclavicle -4.77083e-015 -1.59028e-015
lhumerus -10.3189 27.231 23.8871
lradius 97.7383
lwrist 33.1577
lhand -38.8825 19.3289
lfingers 7.12502
lthumb -11.8903 48.9713
rfemur -59.4084 -31.7214 22.763
rtibia 90.7148
rfoot -10.2544 0.193108
rtoes -48.9071
lfemur -64.5508 40.1139 -32.261
ltibia 92.901
lfoot 9.06476 -19.1957
ltoes 11.3589
222
root -1.80003 13.9127 -1.49825 -175.478 -0.92641 -178.448
lowerback 38.8157 2.82157 -2.99567
upperback 13.2532 -2.63936 0.376513
thorax -4.15603 -3.38128 3.03719
lowerneck -3.39335 -3.62715 -16.0688
upperneck -22.1562 1.6253 24.4849
head -5.93585 1.89159 11.1189
rclavicle 2.38542e-014 2.22639e-014
rhumerus -15.2578 -26.8223 -35.6544
rradius 57.3268
rwrist -19.1072
rhand -40.9914 63.3544
rfingers 7.12502
rthumb -13.9234 33.8406
lclavicle 2.38542e-014 2.22639e-014
lhumerus -9.8428 26.8372 24.6804
lradius 95.9635
lwrist 32.5593
lhand -38.5885 17.961
lfingers 7.12502
lthumb -11.6068 47.6195
rfemur -62.211 -32.5935 25.9263
rtibia 91.7737
rfoot -10.4308 2.07221
rtoes -50.4461
lfemur -64.3122 39.8294 -31.9394
ltibia 92.9295
lfoot 7.22607 -18.1569
ltoes 7.72094
223
root -2.17702 13.8931 -1.51576 -175.264 -0.612253 -179.43
lowerback 38.6821 2.86196 -3.68659
upperback 13.1859 -2.84863 -0.0506045
thorax -4.17519 -3.47326 3.01666
lowerneck -3.44024 -3.76372 -15.7395
upperneck -22.3365 1.49919 24.4661
head -5.95435 1.82216 11.0547
rclavicle -2.54444e-014 -1.66979e-014
rhumerus -15.7933 -26.6445 -34.9306
rradius 56.9356
rwrist -18.4499
rhand -40.5522 62.7563
rfingers 7.12502
rthumb -13.5001 33.2138
lclavicle -2.54444e-014 -1.66979e-014
lhumerus -9.83139 26.3587 25.5602
lradius 94.4103
lwrist 31.9438
lhand -38.4166 16.8532
lfingers 7.12502
lthumb -11.441 46.521
rfemur -64.489 -33.3724 29.3109
rtibia 92.1892
rfoot -11.2842 -0.00361725
rtoes -54.8987
lfemur -63.8933 39.3634 -30.8919
ltibia 92.9758
lfoot 4.83057 -14.5
ltoes 1.40069
224
root -2.54322 13.931 -1.52194 -175.221 -0.319235 -180.283
lowerback 38.6777 2.95979 -4.43502
upperback 13.1564 -3.04753 -0.362152
thorax -4.18441 -3.5842 3.14504
lowerneck -3.79626 -3.74763 -15.7332
upperneck -22.166 1.5637 24.4995
head -5.84973 1.87946 11.0509
rclavicle 6.44062e-014 4.77083e-014
rhumerus -16.208 -26.6762 -34.3679
rradius 56.4285
rwrist -17.8068
rhand -40.158 62.6268
rfingers 7.12502
rthumb -13.1201 33.0595
lclavicle 6.44062e-014 4.77083e-014
lhumerus -9.95372 25.9428 26.448
lradius 92.8266
lwrist 31.2114
lhand -37.9857 16.197
lfingers 7.12502
lthumb -11.0255 45.8874
rfemur -65.509 -33.3222 31.0225
rtibia 91.9376
rfoot -10.5565 5.39762
rtoes -51.1525
lfemur -62.3284 38.7501 -28.9231
ltibia 92.2409
lfoot 3.47165 -11.7788
ltoes 6.84825
225
root -2.90982 13.89 -1.53702 -175.423 -0.0895851 -181.104
lowerback 38.8878 3.08903 -5.13272
upperback 13.1905 -3.2637 -0.679209
thorax -4.18896 -3.72565 3.2498
lowerneck -4.46042 -3.78785 -16.6349
upperneck -21.7114 1.64127 25.1796
head -5.58486 2.01042 11.4725
rclavicle 7.4743e-014 7.95139e-016
rhumerus -16.5966 -27.1263 -34.1909
rradius 55.899
rwrist -17.3423
rhand -40.1868 61.8571
rfingers 7.12502
rthumb -13.1479 32.2916
lclavicle 7.4743e-014 7.95139e-016
lhumerus -9.88879 25.6075 27.4493
lradius 90.9895
lwrist 30.4142
lhand -37.4743 15.6002
lfingers 7.12502
lthumb -10.5322 45.3164
rfemur -66.5407 -33.48 32.9069
rtibia 91.5813
rfoot -10.854 6.7023
rtoes -52.7669
lfemur -60.4872 37.8805 -26.2499
ltibia 91.6043
lfoot 1.88606 -10.4888
ltoes 7.63852
226
root -3.27636 13.8397 -1.55449 -175.681 0.098965 -181.9
lowerback 39.08 -2.00926 -10.1539
upperback 13.0843 -1.52599 -2.0696
thorax -3.90988 0.992653 3.42844
lowerneck -4.79363 -3.77647 -16.9812
upperneck -21.5475 1.76496 25.5359
head -5.49308 2.11728 11.675
rclavicle -6.2816e-014 -2.70347e-014
rhumerus -16.9782 -27.897 -34.3122
rradius 55.5101
rwrist -17.1689
rhand -40.5972 61.4547
rfingers 7.12502
rthumb -13.5434 31.9151
lclavicle -6.2816e-014 -2.70347e-014
lhumerus -9.86168 25.2956 28.6598
lradius 89.0375
lwrist 29.6874
lhand -37.0572 15.0689
lfingers 7.12502
lthumb -10.1299 44.805
rfemur -66.5881 -33.5772 34.1756
rtibia 90.4397
rfoot -11.2994 7.27442
rtoes -53.9515
lfemur -58.4469 36.723 -23.2232
ltibia 90.5998
lfoot 0.400573 -9.68481
ltoes 1.45864
227
root -3.64161 13.7878 -1.57433 -175.93 0.305124 -182.581
lowerback 39.2306 -1.96162 -10.8725
upperback 13.0648 -1.73289 -2.43092
thorax -3.8999 0.90858 3.47481
lowerneck -4.78943 -3.7116 -16.2351
upperneck -21.524 1.89219 25.5069
head -5.52019 2.13543 11.5075
rclavicle -1.59028e-014 -6.67916e-014
rhumerus -17.6326 -28.9411 -34.7408
rradius 55.4616
rwrist -17.4897
rhand -41.2256 61.9964
rfingers 7.12502
rthumb -14.1491 32.4982
lclavicle -1.59028e-014 -6.67916e-014
lhumerus -9.70726 24.9609 29.9306
lradius 86.9184
lwrist 28.7297
lhand -36.4735 14.4947
lfingers 7.12502
lthumb -9.56669 44.2575
rfemur -66.3293 -33.5097 35.0963
rtibia 89.0183
rfoot -11.4178 6.36747
rtoes -54.1517
lfemur -56.2941 35.4806 -19.9541
ltibia 89.231
lfoot -0.804859 -8.38812
ltoes -4.52588
228
root -3.99907 13.7499 -1.59481 -176.245 0.50701 -183.234
lowerback 39.3843 -1.93969 -11.404
upperback 13.0627 -1.88486 -2.94869
thorax -3.89364 0.876188 3.23915
lowerneck -4.82934 -3.68876 -15.5818
upperneck -21.6241 1.98454 25.3669
head -5.56996 2.1606 11.3206
rclavicle 5.80451e-014 5.80451e-014
rhumerus -18.802 -30.227 -35.3967
rradius 55.7344
rwrist -18.3186
rhand -41.8866 62.4653
rfingers 7.12502
rthumb -14.7859 33.0127
lclavicle 5.80451e-014 5.80451e-014
lhumerus -9.18588 24.5286 31.2465
lradius 84.6116
lwrist 27.8595
lhand -35.9871 13.7393
lfingers 7.12502
lthumb -9.09738 43.5231
rfemur -65.3092 -32.8338 34.8768
rtibia 87.0911
rfoot -9.53779 9.01444
rtoes -44.1197
lfemur -53.9221 34.3868 -16.671
ltibia 87.3069
lfoot -1.94098 -5.92324
ltoes -4.51615
229
root -4.34687 13.7138 -1.62108 -176.537 0.760046 -183.967
lowerback 39.4361 -1.83339 -12.1202
upperback 13.0312 -2.00669 -3.39674
thorax -3.87144 0.84216 3.1587
lowerneck -4.68151 -3.55823 -14.1558
upperneck -21.6437 2.1262 24.8913
head -5.65132 2.13799 10.8395
rclavicle 1.74931e-014 4.77083e-015
rhumerus -19.9767 -31.2281 -36.0333
rradius 56.0102
rwrist -19.7252
rhand -42.3515 62.2987
rfingers 7.12502
rthumb -15.2338 32.8796
lclavicle 1.74931e-014 4.77083e-015
lhumerus -8.86426 24.0571 32.7421
lradius 82.3202
lwrist 27.2748
lhand -36.1823 13.6421
lfingers 7.12502
lthumb -9.28576 43.4176
rfemur -64.2318 -32.2273 34.1724
rtibia 85.0241
rfoot -7.96578 11.8363
rtoes -11.1921
lfemur -51.4036 33.3255 -13.6455
ltibia 84.7591
lfoot -2.99471 -2.04544
ltoes -0.854941
230
root -4.69149 13.6744 -1.64958 -176.732 1.06806 -184.621
lowerback 39.2989 -1.68005 -12.9072
upperback 12.9498 -2.12328 -3.6626
thorax -3.83392 0.776465 3.30656
lowerneck -5.03559 -3.49733 -15.0108
upperneck -21.0784 2.22874 25.5319
head -5.4219 2.24241 11.2358
rclavicle 7.63333e-014 1.08934e-013
rhumerus -20.8626 -31.8423 -36.6407
rradius 56.2097
rwrist -21.5693
rhand -42.7093 62.1541
rfingers 7.12502
rthumb -15.5784 32.7615
lclavicle 7.63333e-014 1.08934e-013
lhumerus -8.90635 23.6702 34.4409
lradius 79.9994
lwrist 26.5251
lhand -36.7462 14.3516
lfingers 7.12502
lthumb -9.82978 44.1022
rfemur -63.1749 -31.6678 33.5317
rtibia 83.4776
rfoot -7.87631 12.4584
rtoes 32.337
lfemur -48.7649 32.0878 -10.6726
ltibia 81.6367
lfoot -4.00785 2.35935
ltoes 5.01709
231
root -5.02609 13.6824 -1.66976 -176.848 1.31817 -185.218
lowerback 39.1046 -1.56538 -13.4607
upperback 12.8104 -2.2245 -3.95191
thorax -3.86801 0.72277 3.30766
lowerneck -5.20872 -3.56469 -15.489
upperneck -20.7968 2.15348 25.955
head -5.2768 2.23269 11.4881
rclavicle -2.8625e-014 -2.3059e-014
rhumerus -22.0413 -32.6342 -37.2652
rradius 56.4945
rwrist -23.0891
rhand -43.2449 63.1689
rfingers 7.12502
rthumb -16.0942 33.8173
lclavicle -2.8625e-014 -2.3059e-014
lhumerus -8.8026 23.213 36.3647
lradius 77.5817
lwrist 25.6464
lhand -36.8671 14.8062
lfingers 7.12502
lthumb -9.94639 44.5512
rfemur -62.1523 -30.9896 32.1876
rtibia 82.725
rfoot -15.404 2.99597
rtoes 8.55991
lfemur -45.7315 30.4175 -7.72871
ltibia 77.6001
lfoot -5.17655 6.20618
ltoes 9.88821
232
root -5.38108 13.6287 -1.69722 -176.833 1.39843 -185.804
lowerback 38.8406 -1.58456 -13.629
upperback 12.6452 -2.3538 -4.36613
thorax -3.95041 0.674938 2.99697
lowerneck -5.60884 -3.5963 -15.636
upperneck -20.0168 2.0551 26.4332
head -4.93472 2.19608 11.6653
rclavicle -2.38542e-014 -2.06736e-014
rhumerus -23.7408 -33.7722 -37.9073
rradius 56.9895
rwrist -24.3505
rhand -43.5932 64.1564
rfingers 7.12502
rthumb -16.4296 34.8322
lclavicle -2.38542e-014 -2.06736e-014
lhumerus -8.30736 22.7785 38.4973
lradius 74.9581
lwrist 24.7278
lhand -35.9145 14.715
lfingers 7.12502
lthumb -9.02728 44.5018
rfemur -61.087 -30.2232 30.8552
rtibia 81.8844
rfoot -17.7696 -5.44379
rtoes -0.190528
lfemur -43.111 28.3418 -4.93866
ltibia 73.4765
lfoot -6.10897 8.97776
ltoes 12.147
233
root -5.72865 13.5959 -1.72131 -176.754 1.53096 -186.339
lowerback 38.5291 -1.57601 -13.7688
upperback 12.4332 -2.46603 -4.6733
thorax -4.07373 0.61947 2.78145
lowerneck -5.40181 -3.58079 -15.1299
upperneck -19.8937 2.00861 26.3841
head -4.92787 2.11835 11.5345
rclavicle -8.26944e-014 -7.15625e-014
rhumerus -25.4228 -34.7378 -38.5018
rradius 57.5922
rwrist -25.6455
rhand -43.524 63.8437
rfingers 7.12502
rthumb -16.3629 34.5139
lclavicle -8.26944e-014 -7.15625e-014
lhumerus -7.98928 22.199 40.9609
lradius 72.6773
lwrist 25.6463
lhand -35.8316 14.7964
lfingers 7.12502
lthumb -8.9473 44.5866
rfemur -60.8238 -29.4718 28.7852
rtibia 81.625
rfoot -20.7467 -5.16858
rtoes 3.38461
lfemur -40.3824 26.2547 -2.29194
ltibia 68.8671
lfoot -5.63976 10.9281
ltoes 4.89878
234
root -6.09935 13.5077 -1.74775 -176.872 1.86937 -186.944
lowerback 38.4482 -1.39488 -14.2325
upperback 12.2111 -2.49452 -4.82617
thorax -4.2489 0.599145 2.85431
lowerneck -4.74779 -3.44924 -13.649
upperneck -20.3257 2.05587 25.4396
head -5.215 2.00964 10.881
rclavicle -4.77083e-015 -1.11319e-014
rhumerus -26.7652 -35.3998 -39.1021
rradius 58.089
rwrist -26.6204
rhand -43.5635 63.3498
rfingers 7.12502
rthumb -16.401 34.0232
lclavicle -4.77083e-015 -1.11319e-014
lhumerus -7.89752 22.3041 43.6078
lradius 70.214
lwrist 25.4498
lhand -34.9097 15.3304
lfingers 7.12502
lthumb -8.05766 45.1568
rfemur -60.7318 -28.743 26.4158
rtibia 81.9448
rfoot -22.2716 -7.18811
rtoes -3.50138
lfemur -37.5666 24.2193 0.266693
ltibia 64.4661
lfoot -3.74845 10.1002
ltoes 1.78429
